HIERARCHY
ROOT Hips
{
    OFFSET 0.000000 0.000000 0.000000
    CHANNELS 6 Xposition Yposition Zposition Zrotation Xrotation Yrotation
    JOINT Spine
    {
        OFFSET -0.000000 8.110740 0.000000
        CHANNELS 3 Zrotation Xrotation Yrotation
        JOINT Spine1
        {
            OFFSET -0.000000 21.937449 0.000000
            CHANNELS 3 Zrotation Xrotation Yrotation
            JOINT Neck
            {
                OFFSET -0.000000 21.847355 1.986123
                CHANNELS 3 Zrotation Xrotation Yrotation
                JOINT Head
                {
                    OFFSET -0.000000 13.847605 -1.978229
                    CHANNELS 3 Zrotation Xrotation Yrotation
                    End Site
                    {
                        OFFSET -0.000000 24.727865 0.000000
                    }
                }
            }
            JOINT LeftShoulder
            {
                OFFSET 3.988886 19.638126 -0.276534
                CHANNELS 3 Zrotation Xrotation Yrotation
                JOINT LeftArm
                {
                    OFFSET 12.253303 0.000000 0.000000
                    CHANNELS 3 Zrotation Xrotation Yrotation
                    JOINT LeftForeArm
                    {
                        OFFSET 31.662882 0.000000 0.000000
                        CHANNELS 3 Zrotation Xrotation Yrotation
                        JOINT LeftHand
                        {
                            OFFSET 22.578665 0.000000 0.000000
                            CHANNELS 3 Zrotation Xrotation Yrotation
                            End Site
                            {
                                OFFSET 14.836720 0.000000 0.000000
                            }
                        }
                    }
                }
            }
            JOINT RightShoulder
            {
                OFFSET -3.903774 19.638126 -0.276534
                CHANNELS 3 Zrotation Xrotation Yrotation
                JOINT RightArm
                {
                    OFFSET -12.253303 0.000000 0.000000
                    CHANNELS 3 Zrotation Xrotation Yrotation
                    JOINT RightForeArm
                    {
                        OFFSET -31.662882 0.000000 0.000000
                        CHANNELS 3 Zrotation Xrotation Yrotation
                        JOINT RightHand
                        {
                            OFFSET -22.578665 0.000000 0.000000
                            CHANNELS 3 Zrotation Xrotation Yrotation
                            End Site
                            {
                                OFFSET -14.836720 0.000000 0.000000
                            }
                        }
                    }
                }
            }
        }
    }
    JOINT LeftUpLeg
    {
        OFFSET 9.891147 0.000000 0.000000
        CHANNELS 3 Zrotation Xrotation Yrotation
        JOINT LeftLeg
        {
            OFFSET -0.000000 -39.041359 0.000000
            CHANNELS 3 Zrotation Xrotation Yrotation
            JOINT LeftFoot
            {
                OFFSET -0.000000 -42.395027 0.000000
                CHANNELS 3 Zrotation Xrotation Yrotation
                JOINT LeftToeBase
                {
                    OFFSET -0.000000 -6.429245 14.836720
                    CHANNELS 3 Zrotation Xrotation Yrotation
                    End Site
                    {
                        OFFSET -0.000000 0.000000 3.956458
                    }
                }
            }
        }
    }
    JOINT RightUpLeg
    {
        OFFSET -9.891147 0.000000 0.000000
        CHANNELS 3 Zrotation Xrotation Yrotation
        JOINT RightLeg
        {
            OFFSET -0.000000 -39.041359 0.000000
            CHANNELS 3 Zrotation Xrotation Yrotation
            JOINT RightFoot
            {
                OFFSET -0.000000 -42.395027 0.000000
                CHANNELS 3 Zrotation Xrotation Yrotation
                JOINT RightToeBase
                {
                    OFFSET -0.000000 -6.429245 14.836720
                    CHANNELS 3 Zrotation Xrotation Yrotation
                    End Site
                    {
                        OFFSET -0.000000 0.000000 3.956458
                    }
                }
            }
        }
    }
}
MOTION
Frames:    8
Frame Time:    0.008333
8.301549    89.768700    -31.675592    -0.439202    0.910654    2.001374    -0.584141    -8.333681    -0.041494    -0.717625    1.294061    -3.012274    -2.081960    19.613995    0.064046    8.265151    -4.059006    -0.779025    18.573557    0.696459    3.636169    -11.377254    3.712739    -14.210917    1.071586    0.028938    3.093507    -7.019299    -2.628154    1.945255    -13.622014    -0.051275    8.534196    11.426649    6.433253    -0.142664    -0.670617    0.018253    -3.117690    14.166501    12.468216    -15.162341    9.111608    3.209844    -1.214075    -3.472929    1.092958    -1.879210    -3.935588    -4.983823    8.767555    0.004282    1.046087    -0.042055    -5.504690    0.392168    10.215380    -1.424189    5.106241    7.461374    5.305516    -6.149193    -18.126736    0.275791    0.711702    -1.942467    
8.298098    89.770370    -31.667238    -0.457618    0.912717    1.977031    -0.551067    -8.328999    -0.039083    -0.724149    1.285691    -2.989373    -2.091034    19.608191    0.064214    8.272842    -4.047796    -0.783242    18.574883    0.698750    3.637028    -11.371862    3.736542    -14.192762    1.061594    0.028642    3.090683    -6.975925    -2.666786    1.942860    -13.630025    -0.058767    8.547669    11.423912    6.494444    -0.164087    -0.683382    0.018554    -3.110646    14.171112    12.514111    -15.089605    9.131567    3.233538    -1.182695    -3.470372    1.069078    -1.860818    -3.940448    -4.981822    8.744611    0.005241    1.024966    -0.051568    -5.488835    0.377328    10.222660    -1.412505    5.127231    7.465687    5.293216    -6.160911    -18.110830    0.276131    0.714121    -1.944572    
8.293763    89.771461    -31.658543    -0.472811    0.915488    1.955989    -0.523999    -8.325454    -0.037114    -0.729987    1.278121    -2.969501    -2.098227    19.601738    0.064310    8.281054    -4.034732    -0.789443    18.578148    0.701793    3.638608    -11.372420    3.739197    -14.180654    1.050325    0.028379    3.095156    -6.919815    -2.713308    1.948647    -13.636371    -0.064884    8.559054    11.421251    6.580358    -0.191818    -0.696850    0.018755    -3.084544    14.177572    12.532310    -15.019818    9.149856    3.254240    -1.142297    -3.468571    1.049362    -1.850404    -3.954411    -4.984795    8.715694    0.006042    1.007021    -0.059533    -5.475502    0.362955    10.226473    -1.401139    5.148098    7.468965    5.280271    -6.172560    -18.093916    0.276476    0.715824    -1.946802    
8.285732    89.772346    -31.646421    -0.495705    0.905986    1.941418    -0.496333    -8.314090    -0.035081    -0.730817    1.277255    -2.954556    -2.102278    19.589409    0.064194    8.290387    -4.015843    -0.801913    18.585604    0.703192    3.641373    -11.369487    3.762470    -14.166894    1.047105    0.028242    3.090263    -6.909635    -2.755691    1.963584    -13.641365    -0.070670    8.561139    11.415458    6.657974    -0.213857    -0.707450    0.018860    -3.054914    14.180141    12.559344    -14.950848    9.182748    3.289252    -1.109023    -3.471910    1.026403    -1.833790    -3.981181    -4.992530    8.676719    0.006613    0.989649    -0.065256    -5.449189    0.367074    10.229830    -1.394114    5.163989    7.460882    5.267743    -6.182935    -18.070717    0.276862    0.715886    -1.949513    
8.276277    89.773468    -31.634533    -0.507459    0.904507    1.933041    -0.489399    -8.313144    -0.034591    -0.724461    1.279002    -2.942950    -2.104708    19.579210    0.064070    8.302453    -3.995250    -0.822120    18.595451    0.706422    3.638898    -11.371488    3.773731    -14.154124    1.044184    0.028121    3.085590    -6.875482    -2.801432    2.025038    -13.643218    -0.071419    8.556957    11.403717    6.718870    -0.231246    -0.712967    0.018813    -3.023202    14.172290    12.607578    -14.883487    9.205589    3.312201    -1.071374    -3.474929    1.008961    -1.814123    -4.020338    -5.005769    8.623642    0.006931    0.967102    -0.068532    -5.433209    0.363446    10.224486    -1.387014    5.182330    7.453535    5.254482    -6.194304    -18.047119    0.277217    0.714911    -1.952129    
8.263917    89.774239    -31.620466    -0.526484    0.893987    1.926517    -0.473697    -8.303155    -0.033435    -0.721525    1.283466    -2.938961    -2.119276    19.555906    0.064056    8.330066    -3.958844    -0.842658    18.603767    0.705090    3.649186    -11.369444    3.784737    -14.146463    1.061157    0.028642    3.092258    -6.969527    -2.808435    1.973238    -13.650423    -0.072594    8.544547    11.393860    6.751963    -0.230209    -0.710977    0.018598    -2.997590    14.148587    12.698110    -14.817037    9.240869    3.343972    -1.024356    -3.402307    0.981265    -1.796160    -4.149861    -5.014901    8.558043    0.007116    0.936151    -0.070549    -5.405975    0.370153    10.219081    -1.382393    5.201138    7.440060    5.241611    -6.205951    -18.018894    0.277513    0.712807    -1.954464    
8.249516    89.775230    -31.604994    -0.549117    0.879515    1.919020    -0.455787    -8.289597    -0.032108    -0.717714    1.285952    -2.936505    -2.143895    19.536272    0.064415    8.371356    -3.918468    -0.870078    18.609175    0.704383    3.657324    -11.371643    3.773314    -14.139639    1.073505    0.029046    3.099947    -6.973780    -2.794425    2.026521    -13.657013    -0.068961    8.529953    11.379930    6.766165    -0.219445    -0.703717    0.018281    -2.976608    14.112949    12.831236    -14.751121    9.282312    3.378174    -0.960938    -3.408281    0.973567    -1.778227    -4.212567    -5.042603    8.476800    0.007404    0.897755    -0.073641    -5.322128    0.380834    10.212956    -1.474305    5.237156    7.408356    5.274512    -6.228637    -17.965900    0.277674    0.710469    -1.955873    
8.233671    89.777069    -31.589439    -0.569874    0.867545    1.909693    -0.443099    -8.277897    -0.031173    -0.710474    1.289815    -2.933438    -2.177200    19.507755    0.064841    8.425148    -3.865794    -0.909996    18.614347    0.698436    3.668990    -11.375132    3.761113    -14.134320    1.101368    0.029841    3.104191    -7.115052    -2.793822    2.041360    -13.664562    -0.068881    8.505942    11.362838    6.788322    -0.198603    -0.694206    0.017893    -2.952781    14.074695    12.992482    -14.684164    9.322097    3.407232    -0.889387    -3.412434    0.972575    -1.752032    -4.286730    -5.076524    8.381734    0.008005    0.854438    -0.079916    -5.288160    0.383423    10.204318    -1.472028    5.266287    7.387561    5.260974    -6.241923    -17.925247    0.277689    0.707326    -1.956345    
